<?xml version="1.0" standalone="no"?>
<!DOCTYPE svg PUBLIC "-//W3C//DTD SVG 20010904//EN"
 "http://www.w3.org/TR/2001/REC-SVG-20010904/DTD/svg10.dtd">
<svg version="1.0" xmlns="http://www.w3.org/2000/svg"
 width="168.000000pt" height="50.000000pt" viewBox="0 0 168.000000 50.000000"
 preserveAspectRatio="xMidYMid meet">

<g transform="translate(0.000000,50.000000) scale(0.100000,-0.100000)"
fill="#000000" stroke="none">
<path d="M0 250 l0 -250 840 0 840 0 0 250 0 250 -840 0 -840 0 0 -250z m188
-12 c22 -60 36 -106 32 -103 -5 3 -14 21 -20 40 -11 34 -13 35 -66 35 -54 0
-54 0 -70 -40 -9 -23 -18 -39 -20 -37 -3 3 71 201 83 220 9 15 19 -4 61 -115z
m135 115 l-62 -4 -4 -112 -3 -112 -2 118 -2 117 68 -2 67 -2 -62 -3z m231 -9
c20 -20 21 -68 1 -84 -11 -9 -13 -16 -5 -24 5 -5 9 -33 8 -60 l-1 -51 -4 45
c-6 60 -17 70 -74 70 l-48 0 -4 -57 c-2 -32 -4 -5 -5 60 l-2 117 59 0 c41 0
65 -5 75 -16z m73 -156 c-2 -35 -3 -9 -3 57 0 66 1 94 3 63 2 -32 2 -86 0
-120z m184 162 c10 -6 19 -18 18 -28 0 -14 -2 -14 -6 -2 -9 24 -25 30 -75 30
l-48 0 0 -104 0 -105 53 -4 52 -3 -57 -2 -58 -2 0 115 0 115 51 0 c28 0 59 -5
70 -10z m86 -162 c-2 -35 -3 -9 -3 57 0 66 1 94 3 63 2 -32 2 -86 0 -120z
m126 -51 l62 -3 -67 -2 -68 -2 2 118 2 117 3 -112 4 -112 62 -4z m170 0 l62
-3 -67 -2 -68 -2 2 118 2 117 3 -112 4 -112 62 -4z m216 174 c0 -14 -1 -14 -6
-1 -3 8 -13 24 -22 35 -16 20 -16 20 7 1 12 -11 22 -26 21 -35z m-127 2 c-3
-16 -7 -22 -10 -15 -4 13 4 42 11 42 2 0 2 -12 -1 -27z m-460 -45 c-8 -8 -9
-4 -5 13 4 13 8 18 11 10 2 -7 -1 -18 -6 -23z m483 -6 c-3 -3 -11 0 -18 7 -9
10 -8 11 6 5 10 -3 15 -9 12 -12z m-500 -12 c8 -13 -5 -13 -25 0 -13 8 -13 10
2 10 9 0 20 -4 23 -10z m33 -35 c-3 -3 -9 2 -12 12 -6 14 -5 15 5 6 7 -7 10
-15 7 -18z m572 4 c6 -11 9 -28 7 -37 -4 -13 -5 -11 -6 5 0 12 -8 29 -17 37
-8 9 -11 16 -5 16 6 0 15 -9 21 -21z m-560 -28 c0 -5 -9 -19 -20 -32 l-20 -24
17 32 c19 34 23 39 23 24z"/>
<path d="M116 306 c-35 -83 -34 -86 19 -86 52 0 52 -1 15 85 l-17 40 -17 -39z"/>
<path d="M430 300 l0 -50 46 0 c60 0 84 14 84 48 0 40 -17 52 -77 52 l-53 0 0
-50z"/>
</g>
</svg>
